<svg width="426" height="427" viewBox="0 0 426 427" fill="none" xmlns="http://www.w3.org/2000/svg">
<path d="M213 0.666656C171.623 0.745271 131.163 12.8546 96.5461 35.5197C61.9295 58.1849 34.651 90.4275 18.0333 128.32C1.41562 166.213 -3.82407 208.121 2.95246 248.939C9.729 289.757 28.2293 327.723 56.1999 358.213C76.1769 379.868 100.423 397.15 127.409 408.97C154.396 420.79 183.538 426.892 213 426.892C242.462 426.892 271.604 420.79 298.591 408.97C325.577 397.15 349.823 379.868 369.8 358.213C397.771 327.723 416.271 289.757 423.047 248.939C429.824 208.121 424.584 166.213 407.966 128.32C391.349 90.4275 364.07 58.1849 329.454 35.5197C294.837 12.8546 254.376 0.745271 213 0.666656ZM213 384.667C168.807 384.6 126.363 367.393 94.5999 336.667C104.243 313.19 120.649 293.11 141.731 278.979C162.813 264.848 187.62 257.302 213 257.302C238.38 257.302 263.187 264.848 284.269 278.979C305.351 293.11 321.756 313.19 331.4 336.667C299.636 367.393 257.193 384.6 213 384.667ZM170.333 171.333C170.333 162.895 172.836 154.645 177.524 147.629C182.212 140.613 188.876 135.144 196.672 131.914C204.468 128.685 213.047 127.84 221.324 129.486C229.6 131.133 237.203 135.196 243.17 141.163C249.137 147.13 253.2 154.733 254.847 163.009C256.493 171.286 255.648 179.865 252.419 187.661C249.189 195.457 243.721 202.121 236.704 206.809C229.688 211.498 221.439 214 213 214C201.684 214 190.832 209.505 182.83 201.503C174.828 193.502 170.333 182.649 170.333 171.333ZM360.413 299.333C341.353 266.731 312.016 241.371 277 227.227C287.862 214.91 294.94 199.721 297.383 183.481C299.827 167.242 297.533 150.642 290.776 135.675C284.019 120.707 273.087 108.007 259.291 99.0979C245.495 90.1893 229.422 85.4506 213 85.4506C196.578 85.4506 180.504 90.1893 166.709 99.0979C152.913 108.007 141.981 120.707 135.224 135.675C128.467 150.642 126.173 167.242 128.617 183.481C131.06 199.721 138.138 214.91 149 227.227C113.983 241.371 84.6472 266.731 65.5866 299.333C50.396 273.458 42.3699 244.005 42.3332 214C42.3332 168.736 60.3141 125.327 92.3203 93.3204C124.327 61.3142 167.736 43.3333 213 43.3333C258.263 43.3333 301.673 61.3142 333.679 93.3204C365.686 125.327 383.667 168.736 383.667 214C383.63 244.005 375.604 273.458 360.413 299.333Z" fill="black"/>
</svg>
